<mxfile host="app.diagrams.net" agent="Mozilla/5.0 (Windows NT 10.0; Win64; x64) AppleWebKit/537.36 (KHTML, like Gecko) Chrome/137.0.0.0 Safari/537.36" version="27.1.4">
  <diagram name="PÃ¡gina-1" id="WTRQPqzMp5jFzr-fDF-v">
    <mxGraphModel dx="1783" dy="929" grid="1" gridSize="10" guides="1" tooltips="1" connect="1" arrows="1" fold="1" page="1" pageScale="1" pageWidth="1169" pageHeight="827" background="#ffffff" math="0" shadow="0">
      <root>
        <mxCell id="0" />
        <mxCell id="1" parent="0" />
        <mxCell id="B5MIxkdMY8p7Bc_26-20-26" value="" style="rounded=0;whiteSpace=wrap;html=1;dashed=1;" vertex="1" parent="1">
          <mxGeometry x="920" y="240" width="150" height="320" as="geometry" />
        </mxCell>
        <mxCell id="B5MIxkdMY8p7Bc_26-20-22" value="" style="rounded=0;whiteSpace=wrap;html=1;dashed=1;" vertex="1" parent="1">
          <mxGeometry x="680" y="240" width="150" height="320" as="geometry" />
        </mxCell>
        <mxCell id="B5MIxkdMY8p7Bc_26-20-21" value="" style="rounded=0;whiteSpace=wrap;html=1;dashed=1;" vertex="1" parent="1">
          <mxGeometry x="430" y="240" width="150" height="320" as="geometry" />
        </mxCell>
        <mxCell id="B5MIxkdMY8p7Bc_26-20-1" value="" style="shape=image;html=1;verticalAlign=top;verticalLabelPosition=bottom;labelBackgroundColor=#ffffff;imageAspect=0;aspect=fixed;image=https://cdn3.iconfinder.com/data/icons/document-icons-2/30/647702-excel-128.png" vertex="1" parent="1">
          <mxGeometry x="185" y="310" width="70" height="70" as="geometry" />
        </mxCell>
        <mxCell id="B5MIxkdMY8p7Bc_26-20-2" value="" style="sketch=0;pointerEvents=1;shadow=0;dashed=0;html=1;strokeColor=none;fillColor=#505050;labelPosition=center;verticalLabelPosition=bottom;verticalAlign=top;outlineConnect=0;align=center;shape=mxgraph.office.users.csv_file;" vertex="1" parent="1">
          <mxGeometry x="190.5" y="450" width="59" height="43" as="geometry" />
        </mxCell>
        <mxCell id="B5MIxkdMY8p7Bc_26-20-3" value="XLSX" style="text;html=1;align=center;verticalAlign=middle;resizable=0;points=[];autosize=1;strokeColor=none;fillColor=none;" vertex="1" parent="1">
          <mxGeometry x="199.5" y="390" width="50" height="30" as="geometry" />
        </mxCell>
        <mxCell id="B5MIxkdMY8p7Bc_26-20-4" value="CSV" style="text;html=1;align=center;verticalAlign=middle;resizable=0;points=[];autosize=1;strokeColor=none;fillColor=none;" vertex="1" parent="1">
          <mxGeometry x="199.5" y="510" width="50" height="30" as="geometry" />
        </mxCell>
        <mxCell id="B5MIxkdMY8p7Bc_26-20-5" value="" style="dashed=0;outlineConnect=0;html=1;align=center;labelPosition=center;verticalLabelPosition=bottom;verticalAlign=top;shape=mxgraph.weblogos.onedrive;fillColor=#094AB1;strokeColor=none" vertex="1" parent="1">
          <mxGeometry x="65.5" y="204.8" width="60" height="43.2" as="geometry" />
        </mxCell>
        <mxCell id="B5MIxkdMY8p7Bc_26-20-6" value="One Drive" style="text;html=1;align=center;verticalAlign=middle;resizable=0;points=[];autosize=1;strokeColor=none;fillColor=none;" vertex="1" parent="1">
          <mxGeometry x="55.5" y="248" width="80" height="30" as="geometry" />
        </mxCell>
        <mxCell id="B5MIxkdMY8p7Bc_26-20-7" value="" style="dashed=0;outlineConnect=0;html=1;align=center;labelPosition=center;verticalLabelPosition=bottom;verticalAlign=top;shape=mxgraph.weblogos.google_drive" vertex="1" parent="1">
          <mxGeometry x="185.65" y="204.8" width="48.7" height="43.2" as="geometry" />
        </mxCell>
        <mxCell id="B5MIxkdMY8p7Bc_26-20-8" value="Google Drive" style="text;html=1;align=center;verticalAlign=middle;resizable=0;points=[];autosize=1;strokeColor=none;fillColor=none;" vertex="1" parent="1">
          <mxGeometry x="165" y="248" width="90" height="30" as="geometry" />
        </mxCell>
        <mxCell id="B5MIxkdMY8p7Bc_26-20-9" value="" style="outlineConnect=0;dashed=0;verticalLabelPosition=bottom;verticalAlign=top;align=center;html=1;shape=mxgraph.aws3.s3;fillColor=#E05243;gradientColor=none;" vertex="1" parent="1">
          <mxGeometry x="305.5" y="199.9" width="50" height="50.1" as="geometry" />
        </mxCell>
        <mxCell id="B5MIxkdMY8p7Bc_26-20-10" value="S3" style="text;html=1;align=center;verticalAlign=middle;resizable=0;points=[];autosize=1;strokeColor=none;fillColor=none;" vertex="1" parent="1">
          <mxGeometry x="315.5" y="250" width="40" height="30" as="geometry" />
        </mxCell>
        <mxCell id="B5MIxkdMY8p7Bc_26-20-12" value="" style="image;aspect=fixed;html=1;points=[];align=center;fontSize=12;image=img/lib/azure2/analytics/Power_BI_Embedded.svg;" vertex="1" parent="1">
          <mxGeometry x="720" y="322" width="51" height="68" as="geometry" />
        </mxCell>
        <mxCell id="B5MIxkdMY8p7Bc_26-20-14" value="" style="image;aspect=fixed;html=1;points=[];align=center;fontSize=12;image=img/lib/azure2/power_platform/PowerPlatform.svg;" vertex="1" parent="1">
          <mxGeometry x="480" y="322" width="64.32" height="68" as="geometry" />
        </mxCell>
        <mxCell id="B5MIxkdMY8p7Bc_26-20-15" value="Power plataform" style="text;html=1;align=center;verticalAlign=middle;resizable=0;points=[];autosize=1;strokeColor=none;fillColor=none;" vertex="1" parent="1">
          <mxGeometry x="450" y="399" width="110" height="30" as="geometry" />
        </mxCell>
        <mxCell id="B5MIxkdMY8p7Bc_26-20-16" value="" style="endArrow=none;dashed=1;html=1;rounded=0;" edge="1" parent="1">
          <mxGeometry width="50" height="50" relative="1" as="geometry">
            <mxPoint x="130" y="240" as="sourcePoint" />
            <mxPoint x="180" y="240" as="targetPoint" />
          </mxGeometry>
        </mxCell>
        <mxCell id="B5MIxkdMY8p7Bc_26-20-17" value="" style="endArrow=none;dashed=1;html=1;rounded=0;" edge="1" parent="1">
          <mxGeometry width="50" height="50" relative="1" as="geometry">
            <mxPoint x="240" y="240" as="sourcePoint" />
            <mxPoint x="300" y="240" as="targetPoint" />
          </mxGeometry>
        </mxCell>
        <mxCell id="B5MIxkdMY8p7Bc_26-20-18" value="" style="endArrow=none;dashed=1;html=1;rounded=0;exitX=0.496;exitY=1.1;exitDx=0;exitDy=0;exitPerimeter=0;" edge="1" parent="1" source="B5MIxkdMY8p7Bc_26-20-10">
          <mxGeometry width="50" height="50" relative="1" as="geometry">
            <mxPoint x="350" y="300" as="sourcePoint" />
            <mxPoint x="335" y="560" as="targetPoint" />
          </mxGeometry>
        </mxCell>
        <mxCell id="B5MIxkdMY8p7Bc_26-20-19" value="" style="endArrow=none;dashed=1;html=1;rounded=0;exitX=0.531;exitY=1.033;exitDx=0;exitDy=0;exitPerimeter=0;" edge="1" parent="1" source="B5MIxkdMY8p7Bc_26-20-6">
          <mxGeometry width="50" height="50" relative="1" as="geometry">
            <mxPoint x="90" y="330" as="sourcePoint" />
            <mxPoint x="100" y="560" as="targetPoint" />
          </mxGeometry>
        </mxCell>
        <mxCell id="B5MIxkdMY8p7Bc_26-20-20" value="" style="endArrow=none;dashed=1;html=1;rounded=0;" edge="1" parent="1">
          <mxGeometry width="50" height="50" relative="1" as="geometry">
            <mxPoint x="100" y="560" as="sourcePoint" />
            <mxPoint x="330" y="560" as="targetPoint" />
          </mxGeometry>
        </mxCell>
        <mxCell id="B5MIxkdMY8p7Bc_26-20-23" value="Power BI" style="text;html=1;align=center;verticalAlign=middle;resizable=0;points=[];autosize=1;strokeColor=none;fillColor=none;" vertex="1" parent="1">
          <mxGeometry x="710.5" y="390" width="70" height="30" as="geometry" />
        </mxCell>
        <mxCell id="B5MIxkdMY8p7Bc_26-20-24" value="" style="sketch=0;outlineConnect=0;fontColor=#232F3E;gradientColor=none;fillColor=#232F3D;strokeColor=none;dashed=0;verticalLabelPosition=bottom;verticalAlign=top;align=center;html=1;fontSize=12;fontStyle=0;aspect=fixed;pointerEvents=1;shape=mxgraph.aws4.users;" vertex="1" parent="1">
          <mxGeometry x="961" y="322" width="68" height="68" as="geometry" />
        </mxCell>
        <mxCell id="B5MIxkdMY8p7Bc_26-20-25" value="Analytics" style="text;html=1;align=center;verticalAlign=middle;resizable=0;points=[];autosize=1;strokeColor=none;fillColor=none;" vertex="1" parent="1">
          <mxGeometry x="956" y="398" width="70" height="30" as="geometry" />
        </mxCell>
        <mxCell id="B5MIxkdMY8p7Bc_26-20-27" value="" style="endArrow=none;dashed=1;html=1;rounded=0;" edge="1" parent="1">
          <mxGeometry width="50" height="50" relative="1" as="geometry">
            <mxPoint x="210" y="190" as="sourcePoint" />
            <mxPoint x="210" y="140" as="targetPoint" />
          </mxGeometry>
        </mxCell>
        <mxCell id="B5MIxkdMY8p7Bc_26-20-29" value="" style="endArrow=none;dashed=1;html=1;rounded=0;exitX=-0.02;exitY=0.457;exitDx=0;exitDy=0;exitPerimeter=0;" edge="1" parent="1" source="B5MIxkdMY8p7Bc_26-20-30">
          <mxGeometry width="50" height="50" relative="1" as="geometry">
            <mxPoint x="440" y="140" as="sourcePoint" />
            <mxPoint x="210" y="140" as="targetPoint" />
          </mxGeometry>
        </mxCell>
        <mxCell id="B5MIxkdMY8p7Bc_26-20-30" value="ETL" style="text;html=1;align=center;verticalAlign=middle;resizable=0;points=[];autosize=1;strokeColor=none;fillColor=none;" vertex="1" parent="1">
          <mxGeometry x="450" y="128" width="50" height="30" as="geometry" />
        </mxCell>
        <mxCell id="B5MIxkdMY8p7Bc_26-20-31" value="" style="endArrow=none;dashed=1;html=1;rounded=0;entryX=1.06;entryY=0.5;entryDx=0;entryDy=0;entryPerimeter=0;" edge="1" parent="1" target="B5MIxkdMY8p7Bc_26-20-30">
          <mxGeometry width="50" height="50" relative="1" as="geometry">
            <mxPoint x="750" y="143" as="sourcePoint" />
            <mxPoint x="600" y="143" as="targetPoint" />
          </mxGeometry>
        </mxCell>
        <mxCell id="B5MIxkdMY8p7Bc_26-20-32" value="" style="endArrow=none;dashed=1;html=1;rounded=0;entryX=0.5;entryY=0;entryDx=0;entryDy=0;" edge="1" parent="1" target="B5MIxkdMY8p7Bc_26-20-22">
          <mxGeometry width="50" height="50" relative="1" as="geometry">
            <mxPoint x="755" y="140" as="sourcePoint" />
            <mxPoint x="510" y="320" as="targetPoint" />
          </mxGeometry>
        </mxCell>
        <mxCell id="B5MIxkdMY8p7Bc_26-20-33" value="" style="endArrow=none;dashed=1;html=1;rounded=0;" edge="1" parent="1">
          <mxGeometry width="50" height="50" relative="1" as="geometry">
            <mxPoint x="200" y="560" as="sourcePoint" />
            <mxPoint x="200" y="640" as="targetPoint" />
          </mxGeometry>
        </mxCell>
        <mxCell id="B5MIxkdMY8p7Bc_26-20-34" value="" style="endArrow=none;dashed=1;html=1;rounded=0;" edge="1" parent="1">
          <mxGeometry width="50" height="50" relative="1" as="geometry">
            <mxPoint x="200" y="640" as="sourcePoint" />
            <mxPoint x="760" y="640" as="targetPoint" />
          </mxGeometry>
        </mxCell>
        <mxCell id="B5MIxkdMY8p7Bc_26-20-35" value="" style="endArrow=none;dashed=1;html=1;rounded=0;exitX=0.535;exitY=1.007;exitDx=0;exitDy=0;exitPerimeter=0;" edge="1" parent="1" source="B5MIxkdMY8p7Bc_26-20-22">
          <mxGeometry width="50" height="50" relative="1" as="geometry">
            <mxPoint x="500" y="520" as="sourcePoint" />
            <mxPoint x="760" y="640" as="targetPoint" />
          </mxGeometry>
        </mxCell>
        <mxCell id="B5MIxkdMY8p7Bc_26-20-36" value="" style="endArrow=classic;html=1;rounded=0;entryX=0;entryY=0.5;entryDx=0;entryDy=0;" edge="1" parent="1" target="B5MIxkdMY8p7Bc_26-20-21">
          <mxGeometry width="50" height="50" relative="1" as="geometry">
            <mxPoint x="340" y="400" as="sourcePoint" />
            <mxPoint x="410" y="430" as="targetPoint" />
          </mxGeometry>
        </mxCell>
        <mxCell id="B5MIxkdMY8p7Bc_26-20-37" value="" style="endArrow=classic;html=1;rounded=0;exitX=1;exitY=0.5;exitDx=0;exitDy=0;entryX=0;entryY=0.5;entryDx=0;entryDy=0;" edge="1" parent="1" source="B5MIxkdMY8p7Bc_26-20-21" target="B5MIxkdMY8p7Bc_26-20-22">
          <mxGeometry width="50" height="50" relative="1" as="geometry">
            <mxPoint x="360" y="480" as="sourcePoint" />
            <mxPoint x="410" y="430" as="targetPoint" />
          </mxGeometry>
        </mxCell>
        <mxCell id="B5MIxkdMY8p7Bc_26-20-38" value="" style="endArrow=classic;html=1;rounded=0;exitX=1;exitY=0.5;exitDx=0;exitDy=0;entryX=0;entryY=0.5;entryDx=0;entryDy=0;" edge="1" parent="1" source="B5MIxkdMY8p7Bc_26-20-22" target="B5MIxkdMY8p7Bc_26-20-26">
          <mxGeometry width="50" height="50" relative="1" as="geometry">
            <mxPoint x="360" y="480" as="sourcePoint" />
            <mxPoint x="410" y="430" as="targetPoint" />
          </mxGeometry>
        </mxCell>
        <mxCell id="B5MIxkdMY8p7Bc_26-20-39" value="PIPELINE DE DADOS BÃSICO" style="rounded=0;whiteSpace=wrap;html=1;" vertex="1" parent="1">
          <mxGeometry x="50" y="20" width="1070" height="60" as="geometry" />
        </mxCell>
      </root>
    </mxGraphModel>
  </diagram>
</mxfile>
